<svg width="500" height="500" viewBox="0 0 500 500" fill="none" xmlns="http://www.w3.org/2000/svg">
<path d="M468.891 171.936L461.465 189.424L461.465 189.424L468.891 171.936ZM465.777 171.305L465.777 190.305H465.777L465.777 171.305ZM473.587 179.312L454.609 178.407V178.408L473.587 179.312ZM473.318 183.733L454.37 182.327L454.349 182.606L454.337 182.886L473.318 183.733ZM26.7185 179.322L45.7107 178.777L26.7185 179.322ZM34.6036 171.305L34.6037 152.305H34.6036V171.305ZM465.594 171.305L465.613 152.305L465.603 152.305H465.594V171.305ZM465.61 171.305L465.592 190.305L465.6 190.305H465.609L465.61 171.305ZM355.869 168.344L337.626 173.654L355.869 168.344ZM359.767 171.305V190.305V171.305ZM140.299 171.305L140.299 190.305L140.299 171.305ZM144.197 168.344L162.439 173.654L144.197 168.344ZM476.317 154.447C473.05 153.06 469.474 152.305 465.777 152.305L465.777 190.305C464.29 190.305 462.821 190 461.465 189.424L476.317 154.447ZM492.565 180.216C493.128 168.411 485.985 158.552 476.317 154.447L461.465 189.424C457.531 187.754 454.362 183.592 454.609 178.407L492.565 180.216ZM492.266 185.138C492.387 183.502 492.487 181.861 492.565 180.216L454.609 178.408C454.546 179.718 454.466 181.024 454.37 182.327L492.266 185.138ZM250.099 438C381.656 438 486.085 323.946 492.299 184.579L454.337 182.886C448.867 305.568 357.888 400 250.099 400V438ZM7.7263 179.867C11.7867 321.394 117.06 438 250.099 438V400C141.112 400 49.2868 303.426 45.7107 178.777L7.7263 179.867ZM34.6036 152.305C19.7838 152.305 7.28385 164.445 7.7263 179.867L45.7107 178.777C45.8997 185.366 40.587 190.305 34.6036 190.305V152.305ZM140.299 152.305L34.6037 152.305L34.6036 190.305L140.299 190.305L140.299 152.305ZM162.439 173.654C175.354 129.292 210.886 100 250.033 100V62C190.661 62 142.59 105.886 125.954 163.033L162.439 173.654ZM250.033 100C289.18 100 324.712 129.292 337.626 173.654L374.112 163.033C357.476 105.886 309.405 62 250.033 62V100ZM465.594 152.305L359.767 152.305V190.305L465.594 190.305V152.305ZM465.628 152.305L465.613 152.305L465.576 190.305L465.592 190.305L465.628 152.305ZM465.778 152.305L465.611 152.305L465.609 190.305L465.777 190.305L465.778 152.305ZM337.626 173.654C340.418 183.242 349.238 190.305 359.767 190.305V152.305C366.674 152.305 372.333 156.923 374.112 163.033L337.626 173.654ZM140.299 190.305C150.828 190.305 159.648 183.242 162.439 173.654L125.954 163.033C127.733 156.922 133.392 152.305 140.299 152.305L140.299 190.305Z" fill="#94A1B2" fill-opacity="0.8"/>
</svg>
