<svg width="500" height="500" viewBox="0 0 500 500" fill="none" xmlns="http://www.w3.org/2000/svg">
<path d="M137.076 246.511H363.664V169.546H137.076V246.511Z" fill="#171E28"/>
<path fill-rule="evenodd" clip-rule="evenodd" d="M29.3047 169.443C24.8864 169.443 21.2931 173.044 21.4169 177.46C25.2376 313.786 126.156 423 250.09 423C374.024 423 474.942 313.786 478.763 177.46C478.886 173.044 475.293 169.443 470.875 169.443H29.3047Z" fill="#22272E"/>
<path fill-rule="evenodd" clip-rule="evenodd" d="M29.4922 169.443C25.0739 169.443 21.4728 173.036 21.6781 177.45C26.5625 282.411 127.041 366.214 250.277 366.214C373.513 366.214 473.992 282.411 478.876 177.45C479.082 173.036 475.481 169.443 471.062 169.443H29.4922Z" fill="#272C34"/>
<path fill-rule="evenodd" clip-rule="evenodd" d="M29.4922 169.443C25.0739 169.443 21.4512 173.037 21.8881 177.434C28.9108 248.108 128.479 304.145 250.277 304.145C372.075 304.145 471.644 248.108 478.666 177.434C479.103 173.037 475.481 169.443 471.062 169.443H29.4922Z" fill="#2C323B"/>
<path fill-rule="evenodd" clip-rule="evenodd" d="M359.416 169.443C345.097 115.918 301.629 77 250.228 77C198.827 77 155.358 115.918 141.04 169.443L21.4922 169.443M359.416 169.443H471.062C475.481 169.443 479.157 173.109 477.784 177.308C465.635 214.454 368.412 243.397 250.277 243.397C123.923 243.397 21.4922 210.287 21.4922 169.443" fill="#313741"/>
</svg>
