<svg width="500" height="500" viewBox="0 0 500 500" fill="none" xmlns="http://www.w3.org/2000/svg">
<path d="M137.076 246.511H363.664V169.546H137.076V246.511Z" fill="#171E28"/>
<path fill-rule="evenodd" clip-rule="evenodd" d="M28.8908 169.443C24.4725 169.443 20.8792 173.044 21.0031 177.46C24.8273 313.786 125.837 423 249.883 423C373.929 423 474.938 313.786 478.763 177.46C478.886 173.044 475.293 169.443 470.875 169.443H28.8908Z" fill="#22272E"/>
<path fill-rule="evenodd" clip-rule="evenodd" d="M20.8221 169.443C20.8221 278.116 123.389 366.214 249.911 366.214C376.433 366.214 479 278.116 479 169.443H20.8221Z" fill="#272C34"/>
<path fill-rule="evenodd" clip-rule="evenodd" d="M249.82 304.145C376.393 304.145 479 243.837 479 169.443H20.6397C20.6397 243.837 123.247 304.145 249.82 304.145Z" fill="#2C323B"/>
<path fill-rule="evenodd" clip-rule="evenodd" d="M359.079 169.443C344.759 115.918 301.284 77 249.876 77C198.467 77 154.993 115.918 140.672 169.443H21C21 210.287 123.541 243.397 250.032 243.397C376.522 243.397 479.063 210.287 479.063 169.443H359.079Z" fill="#313741"/>
<g filter="url(#filter0_d_902_34459)">
<path d="M479 170L21 170" stroke="#10141A" stroke-miterlimit="2.58833"/>
</g>
<defs>
<filter id="filter0_d_902_34459" x="20" y="168.5" width="460" height="3" filterUnits="userSpaceOnUse" color-interpolation-filters="sRGB">
<feFlood flood-opacity="0" result="BackgroundImageFix"/>
<feColorMatrix in="SourceAlpha" type="matrix" values="0 0 0 0 0 0 0 0 0 0 0 0 0 0 0 0 0 0 127 0" result="hardAlpha"/>
<feOffset/>
<feGaussianBlur stdDeviation="0.5"/>
<feComposite in2="hardAlpha" operator="out"/>
<feColorMatrix type="matrix" values="0 0 0 0 0 0 0 0 0 0 0 0 0 0 0 0 0 0 1 0"/>
<feBlend mode="normal" in2="BackgroundImageFix" result="effect1_dropShadow_902_34459"/>
<feBlend mode="normal" in="SourceGraphic" in2="effect1_dropShadow_902_34459" result="shape"/>
</filter>
</defs>
</svg>
