<svg width="500" height="500" viewBox="0 0 500 500" fill="none" xmlns="http://www.w3.org/2000/svg">
<path d="M391.559 197.94L389.137 213.755L389.137 213.755L391.559 197.94ZM398.053 205.847L414.01 207.014L414.011 207.005L414.011 206.996L398.053 205.847ZM398.035 206.083L382.078 204.915L382.061 205.143L382.051 205.37L398.035 206.083ZM102.161 205.848L86.1758 206.54L102.161 205.848ZM319.905 194.894L335.216 190.251L319.905 194.894ZM180.214 194.894L164.902 190.251L180.214 194.894ZM393.98 182.124C392.785 181.941 391.568 181.847 390.34 181.847V213.847C389.94 213.847 389.538 213.817 389.137 213.755L393.98 182.124ZM414.011 206.996C414.95 193.966 405.336 183.863 393.98 182.124L389.137 213.755C385.465 213.193 381.731 209.74 382.094 204.697L414.011 206.996ZM413.993 207.251L414.01 207.014L382.095 204.679L382.078 204.915L413.993 207.251ZM250.103 378C339.421 378 409.835 300.654 414.019 206.796L382.051 205.37C378.493 285.177 319.405 346 250.103 346V378ZM86.1758 206.54C90.2452 300.515 160.704 378 250.103 378V346C180.739 346 121.606 285.067 118.146 205.156L86.1758 206.54ZM109.988 181.847C96.9178 181.847 85.5712 192.577 86.1758 206.54L118.146 205.156C118.368 210.291 114.222 213.847 109.988 213.847V181.847ZM110.109 181.847H109.988V213.847H110.109V181.847ZM176.301 181.847H110.109V213.847H176.301V181.847ZM195.525 199.537C203.954 171.742 226.163 154 250.059 154V122C209.308 122 176.561 151.804 164.902 190.251L195.525 199.537ZM250.059 154C273.956 154 296.165 171.742 304.593 199.537L335.216 190.251C323.558 151.804 290.81 122 250.059 122V154ZM390.218 181.847H323.818V213.847H390.218V181.847ZM390.34 181.847H390.218V213.847H390.34V181.847ZM304.593 199.537C307.072 207.709 314.645 213.847 323.818 213.847V181.847C329.369 181.847 333.789 185.544 335.216 190.251L304.593 199.537ZM176.301 213.847C185.474 213.847 193.047 207.709 195.525 199.537L164.902 190.251C166.33 185.544 170.749 181.847 176.301 181.847V213.847Z" fill="#94a1b2" fill-opacity="0.50"/>
</svg>
